<mxfile host="app.diagrams.net" agent="Mozilla/5.0 (Windows NT 10.0; Win64; x64) AppleWebKit/537.36 (KHTML, like Gecko) Chrome/134.0.0.0 Safari/537.36" version="26.2.9">
  <diagram id="OkwnyhUCFSwMgW6yAt9E" name="Page-1">
    <mxGraphModel dx="874" dy="492" grid="1" gridSize="10" guides="1" tooltips="1" connect="1" arrows="1" fold="1" page="1" pageScale="1" pageWidth="850" pageHeight="1100" math="0" shadow="0">
      <root>
        <mxCell id="0" />
        <mxCell id="1" parent="0" />
        <mxCell id="7ReiXEfPi8L_ccSz-keL-42" value="" style="group" parent="1" vertex="1" connectable="0">
          <mxGeometry x="150" y="60" width="620" height="905.62" as="geometry" />
        </mxCell>
        <mxCell id="7ReiXEfPi8L_ccSz-keL-40" value="&lt;font style=&quot;font-size: 16px;&quot;&gt;Activity Diagram&lt;/font&gt;" style="rounded=1;arcSize=9;fillColor=#F7F8F9;align=center;spacingLeft=5;strokeColor=#DEE1E6;html=1;strokeWidth=2;fontSize=12" parent="7ReiXEfPi8L_ccSz-keL-42" vertex="1">
          <mxGeometry x="165" width="290" height="40" as="geometry" />
        </mxCell>
        <mxCell id="7ReiXEfPi8L_ccSz-keL-41" value="" style="group" parent="7ReiXEfPi8L_ccSz-keL-42" vertex="1" connectable="0">
          <mxGeometry y="60" width="620" height="845.62" as="geometry" />
        </mxCell>
        <mxCell id="7ReiXEfPi8L_ccSz-keL-1" value="" style="strokeWidth=2;html=1;shape=mxgraph.flowchart.start_2;whiteSpace=wrap;fillColor=#000000;container=0;" parent="7ReiXEfPi8L_ccSz-keL-41" vertex="1">
          <mxGeometry x="300.2" width="52.24" height="50" as="geometry" />
        </mxCell>
        <mxCell id="7ReiXEfPi8L_ccSz-keL-2" value="&lt;font style=&quot;font-size: 16px;&quot;&gt;Launch GUI&lt;/font&gt;" style="points=[[0.25,0,0],[0.5,0,0],[0.75,0,0],[1,0.25,0],[1,0.5,0],[1,0.75,0],[0.75,1,0],[0.5,1,0],[0.25,1,0],[0,0.75,0],[0,0.5,0],[0,0.25,0]];shape=mxgraph.bpmn.task2;whiteSpace=wrap;rectStyle=rounded;size=10;html=1;container=0;expand=0;collapsible=0;taskMarker=abstract;" parent="7ReiXEfPi8L_ccSz-keL-41" vertex="1">
          <mxGeometry x="277.36842105263156" y="111.04166666666666" width="97.89473684210526" height="68.33333333333333" as="geometry" />
        </mxCell>
        <mxCell id="7ReiXEfPi8L_ccSz-keL-3" value="&lt;span style=&quot;font-size: 16px;&quot;&gt;Start Packet Capture&lt;/span&gt;" style="points=[[0.25,0,0],[0.5,0,0],[0.75,0,0],[1,0.25,0],[1,0.5,0],[1,0.75,0],[0.75,1,0],[0.5,1,0],[0.25,1,0],[0,0.75,0],[0,0.5,0],[0,0.25,0]];shape=mxgraph.bpmn.task2;whiteSpace=wrap;rectStyle=rounded;size=10;html=1;container=0;expand=0;collapsible=0;taskMarker=abstract;" parent="7ReiXEfPi8L_ccSz-keL-41" vertex="1">
          <mxGeometry x="118.28947368421052" y="298.9583333333333" width="97.89473684210526" height="68.33333333333333" as="geometry" />
        </mxCell>
        <mxCell id="7ReiXEfPi8L_ccSz-keL-4" value="&lt;span style=&quot;font-size: 16px;&quot;&gt;Stop Packet Capture&lt;/span&gt;" style="points=[[0.25,0,0],[0.5,0,0],[0.75,0,0],[1,0.25,0],[1,0.5,0],[1,0.75,0],[0.75,1,0],[0.5,1,0],[0.25,1,0],[0,0.75,0],[0,0.5,0],[0,0.25,0]];shape=mxgraph.bpmn.task2;whiteSpace=wrap;rectStyle=rounded;size=10;html=1;container=0;expand=0;collapsible=0;taskMarker=abstract;" parent="7ReiXEfPi8L_ccSz-keL-41" vertex="1">
          <mxGeometry x="187.63157894736844" y="623.5416666666666" width="97.89473684210526" height="68.33333333333333" as="geometry" />
        </mxCell>
        <mxCell id="7ReiXEfPi8L_ccSz-keL-5" value="&lt;span style=&quot;font-size: 16px;&quot;&gt;VIew Packet Details&lt;/span&gt;" style="points=[[0.25,0,0],[0.5,0,0],[0.75,0,0],[1,0.25,0],[1,0.5,0],[1,0.75,0],[0.75,1,0],[0.5,1,0],[0.25,1,0],[0,0.75,0],[0,0.5,0],[0,0.25,0]];shape=mxgraph.bpmn.task2;whiteSpace=wrap;rectStyle=rounded;size=10;html=1;container=0;expand=0;collapsible=0;taskMarker=abstract;" parent="7ReiXEfPi8L_ccSz-keL-41" vertex="1">
          <mxGeometry x="118.28947368421052" y="435.625" width="97.89473684210526" height="68.33333333333333" as="geometry" />
        </mxCell>
        <mxCell id="7ReiXEfPi8L_ccSz-keL-6" value="&lt;span style=&quot;font-size: 16px;&quot;&gt;Save Logs of Captured Packets&lt;/span&gt;" style="points=[[0.25,0,0],[0.5,0,0],[0.75,0,0],[1,0.25,0],[1,0.5,0],[1,0.75,0],[0.75,1,0],[0.5,1,0],[0.25,1,0],[0,0.75,0],[0,0.5,0],[0,0.25,0]];shape=mxgraph.bpmn.task2;whiteSpace=wrap;rectStyle=rounded;size=10;html=1;container=0;expand=0;collapsible=0;taskMarker=abstract;" parent="7ReiXEfPi8L_ccSz-keL-41" vertex="1">
          <mxGeometry x="16.31578947368422" y="623.5416666666666" width="97.89473684210526" height="68.33333333333333" as="geometry" />
        </mxCell>
        <mxCell id="7ReiXEfPi8L_ccSz-keL-7" value="&lt;span style=&quot;font-size: 16px;&quot;&gt;View Information about software&lt;/span&gt;" style="points=[[0.25,0,0],[0.5,0,0],[0.75,0,0],[1,0.25,0],[1,0.5,0],[1,0.75,0],[0.75,1,0],[0.5,1,0],[0.25,1,0],[0,0.75,0],[0,0.5,0],[0,0.25,0]];shape=mxgraph.bpmn.task2;whiteSpace=wrap;rectStyle=rounded;size=10;html=1;container=0;expand=0;collapsible=0;taskMarker=abstract;" parent="7ReiXEfPi8L_ccSz-keL-41" vertex="1">
          <mxGeometry x="450" y="298.96" width="125" height="71.04" as="geometry" />
        </mxCell>
        <mxCell id="7ReiXEfPi8L_ccSz-keL-8" value="&lt;span style=&quot;font-size: 16px;&quot;&gt;Read PCAP files&lt;/span&gt;" style="points=[[0.25,0,0],[0.5,0,0],[0.75,0,0],[1,0.25,0],[1,0.5,0],[1,0.75,0],[0.75,1,0],[0.5,1,0],[0.25,1,0],[0,0.75,0],[0,0.5,0],[0,0.25,0]];shape=mxgraph.bpmn.task2;whiteSpace=wrap;rectStyle=rounded;size=10;html=1;container=0;expand=0;collapsible=0;taskMarker=abstract;" parent="7ReiXEfPi8L_ccSz-keL-41" vertex="1">
          <mxGeometry x="285.5263157894737" y="298.9583333333333" width="97.89473684210526" height="68.33333333333333" as="geometry" />
        </mxCell>
        <mxCell id="7ReiXEfPi8L_ccSz-keL-9" value="" style="endArrow=classic;html=1;rounded=0;exitX=0.5;exitY=1;exitDx=0;exitDy=0;exitPerimeter=0;entryX=0.5;entryY=0;entryDx=0;entryDy=0;entryPerimeter=0;" parent="7ReiXEfPi8L_ccSz-keL-41" source="7ReiXEfPi8L_ccSz-keL-1" target="7ReiXEfPi8L_ccSz-keL-2" edge="1">
          <mxGeometry width="50" height="50" relative="1" as="geometry">
            <mxPoint x="293.6842105263158" y="179.375" as="sourcePoint" />
            <mxPoint x="334.4736842105263" y="136.66666666666663" as="targetPoint" />
          </mxGeometry>
        </mxCell>
        <mxCell id="7ReiXEfPi8L_ccSz-keL-11" value="" style="endArrow=classic;html=1;rounded=0;exitX=0.5;exitY=1;exitDx=0;exitDy=0;exitPerimeter=0;entryX=0.5;entryY=0;entryDx=0;entryDy=0;entryPerimeter=0;" parent="7ReiXEfPi8L_ccSz-keL-41" source="7ReiXEfPi8L_ccSz-keL-3" target="7ReiXEfPi8L_ccSz-keL-5" edge="1">
          <mxGeometry width="50" height="50" relative="1" as="geometry">
            <mxPoint x="293.6842105263158" y="350.2083333333333" as="sourcePoint" />
            <mxPoint x="334.4736842105263" y="307.5" as="targetPoint" />
          </mxGeometry>
        </mxCell>
        <mxCell id="7ReiXEfPi8L_ccSz-keL-12" value="" style="endArrow=classic;html=1;rounded=0;entryX=0.5;entryY=0;entryDx=0;entryDy=0;entryPerimeter=0;exitX=0.156;exitY=1.061;exitDx=0;exitDy=0;exitPerimeter=0;" parent="7ReiXEfPi8L_ccSz-keL-41" source="7ReiXEfPi8L_ccSz-keL-27" target="7ReiXEfPi8L_ccSz-keL-6" edge="1">
          <mxGeometry width="50" height="50" relative="1" as="geometry">
            <mxPoint x="65.26315789473682" y="580.8333333333333" as="sourcePoint" />
            <mxPoint x="334.4736842105263" y="307.5" as="targetPoint" />
          </mxGeometry>
        </mxCell>
        <mxCell id="7ReiXEfPi8L_ccSz-keL-13" value="&lt;span style=&quot;font-size: 16px;&quot;&gt;Save Logs of PCAP file Packets&lt;/span&gt;" style="points=[[0.25,0,0],[0.5,0,0],[0.75,0,0],[1,0.25,0],[1,0.5,0],[1,0.75,0],[0.75,1,0],[0.5,1,0],[0.25,1,0],[0,0.75,0],[0,0.5,0],[0,0.25,0]];shape=mxgraph.bpmn.task2;whiteSpace=wrap;rectStyle=rounded;size=10;html=1;container=0;expand=0;collapsible=0;taskMarker=abstract;" parent="7ReiXEfPi8L_ccSz-keL-41" vertex="1">
          <mxGeometry x="285.5263157894737" y="435.625" width="97.89473684210526" height="68.33333333333333" as="geometry" />
        </mxCell>
        <mxCell id="7ReiXEfPi8L_ccSz-keL-14" value="" style="endArrow=classic;html=1;rounded=0;entryX=0.5;entryY=0;entryDx=0;entryDy=0;entryPerimeter=0;exitX=0.814;exitY=0.95;exitDx=0;exitDy=0;exitPerimeter=0;" parent="7ReiXEfPi8L_ccSz-keL-41" source="7ReiXEfPi8L_ccSz-keL-27" target="7ReiXEfPi8L_ccSz-keL-4" edge="1">
          <mxGeometry width="50" height="50" relative="1" as="geometry">
            <mxPoint x="236.57894736842104" y="580.8333333333333" as="sourcePoint" />
            <mxPoint x="130.52631578947364" y="512.5" as="targetPoint" />
          </mxGeometry>
        </mxCell>
        <mxCell id="7ReiXEfPi8L_ccSz-keL-15" value="" style="endArrow=classic;html=1;rounded=0;exitX=0.5;exitY=1;exitDx=0;exitDy=0;exitPerimeter=0;entryX=0.462;entryY=-0.328;entryDx=0;entryDy=0;entryPerimeter=0;" parent="7ReiXEfPi8L_ccSz-keL-41" source="7ReiXEfPi8L_ccSz-keL-2" target="7ReiXEfPi8L_ccSz-keL-19" edge="1">
          <mxGeometry width="50" height="50" relative="1" as="geometry">
            <mxPoint x="322.2368421052632" y="187.91666666666663" as="sourcePoint" />
            <mxPoint x="314.07894736842104" y="239.16666666666663" as="targetPoint" />
          </mxGeometry>
        </mxCell>
        <mxCell id="7ReiXEfPi8L_ccSz-keL-18" value="" style="endArrow=classic;html=1;rounded=0;exitX=0.5;exitY=1;exitDx=0;exitDy=0;exitPerimeter=0;entryX=0.5;entryY=0;entryDx=0;entryDy=0;entryPerimeter=0;" parent="7ReiXEfPi8L_ccSz-keL-41" source="7ReiXEfPi8L_ccSz-keL-8" target="7ReiXEfPi8L_ccSz-keL-13" edge="1">
          <mxGeometry width="50" height="50" relative="1" as="geometry">
            <mxPoint x="220.26315789473688" y="316.04166666666663" as="sourcePoint" />
            <mxPoint x="220.26315789473688" y="384.375" as="targetPoint" />
          </mxGeometry>
        </mxCell>
        <mxCell id="7ReiXEfPi8L_ccSz-keL-19" value="" style="verticalLabelPosition=bottom;shadow=0;dashed=0;align=center;html=1;verticalAlign=top;shape=mxgraph.electrical.transmission.2_line_bus;container=0;" parent="7ReiXEfPi8L_ccSz-keL-41" vertex="1">
          <mxGeometry x="130.52631578947364" y="239.16666666666663" width="424.2105263157895" height="8.541666666666666" as="geometry" />
        </mxCell>
        <mxCell id="7ReiXEfPi8L_ccSz-keL-20" value="" style="endArrow=classic;html=1;rounded=0;entryX=0.5;entryY=0;entryDx=0;entryDy=0;entryPerimeter=0;exitX=0.087;exitY=1.061;exitDx=0;exitDy=0;exitPerimeter=0;" parent="7ReiXEfPi8L_ccSz-keL-41" source="7ReiXEfPi8L_ccSz-keL-19" target="7ReiXEfPi8L_ccSz-keL-3" edge="1">
          <mxGeometry width="50" height="50" relative="1" as="geometry">
            <mxPoint x="179.4736842105263" y="273.3333333333333" as="sourcePoint" />
            <mxPoint x="321.42105263157896" y="246" as="targetPoint" />
          </mxGeometry>
        </mxCell>
        <mxCell id="7ReiXEfPi8L_ccSz-keL-21" value="" style="endArrow=classic;html=1;rounded=0;entryX=0.5;entryY=0;entryDx=0;entryDy=0;entryPerimeter=0;exitX=0.481;exitY=1.006;exitDx=0;exitDy=0;exitPerimeter=0;" parent="7ReiXEfPi8L_ccSz-keL-41" source="7ReiXEfPi8L_ccSz-keL-19" target="7ReiXEfPi8L_ccSz-keL-8" edge="1">
          <mxGeometry width="50" height="50" relative="1" as="geometry">
            <mxPoint x="269.2105263157895" y="249.41666666666663" as="sourcePoint" />
            <mxPoint x="329.57894736842104" y="254.54166666666663" as="targetPoint" />
          </mxGeometry>
        </mxCell>
        <mxCell id="7ReiXEfPi8L_ccSz-keL-22" value="" style="endArrow=classic;html=1;rounded=0;exitX=0.902;exitY=1.117;exitDx=0;exitDy=0;exitPerimeter=0;entryX=0.5;entryY=0;entryDx=0;entryDy=0;entryPerimeter=0;" parent="7ReiXEfPi8L_ccSz-keL-41" source="7ReiXEfPi8L_ccSz-keL-19" target="7ReiXEfPi8L_ccSz-keL-7" edge="1">
          <mxGeometry width="50" height="50" relative="1" as="geometry">
            <mxPoint x="338.55263157894734" y="205" as="sourcePoint" />
            <mxPoint x="337.7368421052632" y="263.0833333333333" as="targetPoint" />
          </mxGeometry>
        </mxCell>
        <mxCell id="7ReiXEfPi8L_ccSz-keL-27" value="" style="verticalLabelPosition=bottom;shadow=0;dashed=0;align=center;html=1;verticalAlign=top;shape=mxgraph.electrical.transmission.2_line_bus;container=0;" parent="7ReiXEfPi8L_ccSz-keL-41" vertex="1">
          <mxGeometry x="24.4736842105263" y="572.2916666666666" width="261.05263157894734" height="8.541666666666666" as="geometry" />
        </mxCell>
        <mxCell id="7ReiXEfPi8L_ccSz-keL-28" value="" style="endArrow=classic;html=1;rounded=0;exitX=0.5;exitY=1;exitDx=0;exitDy=0;exitPerimeter=0;entryX=0.548;entryY=-0.161;entryDx=0;entryDy=0;entryPerimeter=0;" parent="7ReiXEfPi8L_ccSz-keL-41" source="7ReiXEfPi8L_ccSz-keL-5" target="7ReiXEfPi8L_ccSz-keL-27" edge="1">
          <mxGeometry width="50" height="50" relative="1" as="geometry">
            <mxPoint x="203.9473684210526" y="478.33333333333326" as="sourcePoint" />
            <mxPoint x="244.73684210526312" y="435.625" as="targetPoint" />
          </mxGeometry>
        </mxCell>
        <mxCell id="7ReiXEfPi8L_ccSz-keL-29" value="" style="ellipse;html=1;shape=endState;fillColor=#000000;strokeColor=#ff0000;container=0;" parent="7ReiXEfPi8L_ccSz-keL-41" vertex="1">
          <mxGeometry x="293.88" y="790" width="60" height="55.62" as="geometry" />
        </mxCell>
        <mxCell id="7ReiXEfPi8L_ccSz-keL-30" value="" style="verticalLabelPosition=bottom;shadow=0;dashed=0;align=center;html=1;verticalAlign=top;shape=mxgraph.electrical.transmission.2_line_bus;container=0;" parent="7ReiXEfPi8L_ccSz-keL-41" vertex="1">
          <mxGeometry y="726.0416666666666" width="620" height="8.541666666666666" as="geometry" />
        </mxCell>
        <mxCell id="7ReiXEfPi8L_ccSz-keL-31" value="" style="endArrow=classic;html=1;rounded=0;exitX=0.5;exitY=1;exitDx=0;exitDy=0;exitPerimeter=0;entryX=0.106;entryY=-0.106;entryDx=0;entryDy=0;entryPerimeter=0;" parent="7ReiXEfPi8L_ccSz-keL-41" source="7ReiXEfPi8L_ccSz-keL-6" target="7ReiXEfPi8L_ccSz-keL-30" edge="1">
          <mxGeometry width="50" height="50" relative="1" as="geometry">
            <mxPoint x="244.73684210526312" y="589.375" as="sourcePoint" />
            <mxPoint x="65.26315789473682" y="726.0416666666666" as="targetPoint" />
          </mxGeometry>
        </mxCell>
        <mxCell id="7ReiXEfPi8L_ccSz-keL-32" value="" style="endArrow=classic;html=1;rounded=0;exitX=0.5;exitY=1;exitDx=0;exitDy=0;exitPerimeter=0;entryX=0.381;entryY=0.061;entryDx=0;entryDy=0;entryPerimeter=0;" parent="7ReiXEfPi8L_ccSz-keL-41" source="7ReiXEfPi8L_ccSz-keL-4" target="7ReiXEfPi8L_ccSz-keL-30" edge="1">
          <mxGeometry width="50" height="50" relative="1" as="geometry">
            <mxPoint x="73.42105263157896" y="700.4166666666666" as="sourcePoint" />
            <mxPoint x="74.23684210526315" y="733.7291666666666" as="targetPoint" />
          </mxGeometry>
        </mxCell>
        <mxCell id="7ReiXEfPi8L_ccSz-keL-33" value="" style="endArrow=classic;html=1;rounded=0;exitX=0.5;exitY=1;exitDx=0;exitDy=0;exitPerimeter=0;entryX=0.539;entryY=0;entryDx=0;entryDy=0;entryPerimeter=0;" parent="7ReiXEfPi8L_ccSz-keL-41" source="7ReiXEfPi8L_ccSz-keL-13" target="7ReiXEfPi8L_ccSz-keL-30" edge="1">
          <mxGeometry width="50" height="50" relative="1" as="geometry">
            <mxPoint x="244.73684210526312" y="700.4166666666666" as="sourcePoint" />
            <mxPoint x="244.73684210526312" y="735.4375" as="targetPoint" />
          </mxGeometry>
        </mxCell>
        <mxCell id="7ReiXEfPi8L_ccSz-keL-34" value="" style="endArrow=classic;html=1;rounded=0;exitX=0.5;exitY=1;exitDx=0;exitDy=0;exitPerimeter=0;entryX=0.831;entryY=-0.243;entryDx=0;entryDy=0;entryPerimeter=0;" parent="7ReiXEfPi8L_ccSz-keL-41" source="7ReiXEfPi8L_ccSz-keL-7" target="7ReiXEfPi8L_ccSz-keL-30" edge="1">
          <mxGeometry width="50" height="50" relative="1" as="geometry">
            <mxPoint x="342.63157894736844" y="512.5" as="sourcePoint" />
            <mxPoint x="522.1052631578947" y="700.4166666666666" as="targetPoint" />
          </mxGeometry>
        </mxCell>
        <mxCell id="7ReiXEfPi8L_ccSz-keL-35" value="" style="endArrow=classic;html=1;rounded=0;exitX=0.52;exitY=1.162;exitDx=0;exitDy=0;exitPerimeter=0;entryX=0.5;entryY=0;entryDx=0;entryDy=0;" parent="7ReiXEfPi8L_ccSz-keL-41" source="7ReiXEfPi8L_ccSz-keL-30" target="7ReiXEfPi8L_ccSz-keL-29" edge="1">
          <mxGeometry width="50" height="50" relative="1" as="geometry">
            <mxPoint x="334.4736842105263" y="187.91666666666663" as="sourcePoint" />
            <mxPoint x="334.4736842105263" y="245.14583333333331" as="targetPoint" />
          </mxGeometry>
        </mxCell>
      </root>
    </mxGraphModel>
  </diagram>
</mxfile>
